<?xml version="1.0" encoding="utf-8"?>
<!-- Generator: Adobe Illustrator 15.0.0, SVG Export Plug-In . SVG Version: 6.00 Build 0)  -->
<!DOCTYPE svg PUBLIC "-//W3C//DTD SVG 1.1//EN" "http://www.w3.org/Graphics/SVG/1.1/DTD/svg11.dtd">
<svg version="1.1" id="Layer_1" xmlns="http://www.w3.org/2000/svg" xmlns:xlink="http://www.w3.org/1999/xlink" x="0px" y="0px"
	 width="94px" height="30px" viewBox="0 0 94 30" enable-background="new 0 0 94 30" xml:space="preserve">
<g>
	<path fill="#FFFFFF" d="M4.31,27.866c0,1.451-0.426,1.92-1.877,1.92H1.877c-1.45,0-1.877-0.469-1.877-1.92V1.877
		C0,0.469,0.427,0,1.877,0h0.555C3.884,0,4.31,0.469,4.31,1.877V27.866z M16.472,27.994c0.726,1.238,0.384,1.792-1.024,1.792h-1.152
		c-1.622,0-2.134-0.384-2.902-1.792l-4.438-7.766c-0.811-1.409-0.811-2.22-0.042-3.671l4.097-7.682
		c0.725-1.408,1.194-1.792,2.73-1.792h1.153c1.366,0,1.664,0.555,0.981,1.75l-5.12,9.389L16.472,27.994z"/>
	<path fill="#FFFFFF" d="M30.938,14.637c0-2.688-1.28-4.054-3.798-4.054c-2.048,0-2.945,0.939-3.456,2.048
		c-0.385,0.896-0.641,1.152-1.793,1.152h-1.152c-1.28,0-1.707-0.598-1.323-1.878c0.854-2.901,3.415-5.078,7.597-5.078
		c4.822,0,8.151,2.689,8.151,8.236v12.845c0,1.408-0.47,1.877-1.878,1.877h-0.299c-1.409,0-1.877-0.469-1.877-1.877v-1.707
		C30.81,27.567,29.231,30,25.518,30c-4.609,0-6.999-2.987-6.999-6.657c0-4.011,3.115-6.742,7.681-6.742h4.737V14.637z
		 M27.183,20.015c-3.201,0-4.268,1.493-4.268,3.286s1.195,3.157,3.499,3.157c2.988,0,4.651-2.389,4.651-5.078v-1.365H27.183z"/>
	<path fill="#FFFFFF" d="M52.475,17.325c1.322,0,1.75,0.428,1.75,1.793v3.158c0,4.864-2.817,7.724-7.425,7.724
		c-4.651,0-7.597-2.859-7.597-7.81V4.097c0-1.451,0.427-1.877,1.878-1.877h0.47c1.451,0,1.92,0.427,1.92,1.877v2.987h8.621
		c1.408,0,1.835,0.469,1.835,1.835v0.128c0,1.366-0.427,1.792-1.835,1.792H43.47v11.522c0,2.561,1.067,3.841,3.329,3.841
		c2.219,0,3.328-1.323,3.328-3.841V19.16c0-1.407,0.47-1.835,1.835-1.835H52.475z"/>
	<path fill="#FFFFFF" d="M61.794,22.105c0,2.475,1.195,4.055,3.884,4.055c1.159,0,2.061-0.369,2.508-1.094
		c0.652-1.06,0.919-1.747,2.498-1.747h0.555c1.408,0,1.988,0.738,1.622,1.921C71.958,28.147,69.5,30,65.635,30
		c-4.993,0-8.193-3.201-8.193-8.065v-6.999c0-4.907,3.158-8.065,8.151-8.065c4.201,0,6.446,2.71,6.935,3.908
		c0.484,1.187,0.186,2.243-1.18,2.243H70.28c-1.579,0-1.503-0.357-2.175-1.354c-0.29-0.429-0.884-1-2.427-1
		c-2.603,0-3.884,1.579-3.884,4.054V22.105z"/>
	<path fill="#FFFFFF" d="M93.086,27.866c0,1.451-0.427,1.92-1.877,1.92h-0.555c-1.45,0-1.92-0.469-1.92-1.92V15.064
		c0-2.774-1.451-4.268-3.627-4.268c-2.432,0-4.097,1.877-4.097,4.695v12.375c0,1.451-0.427,1.92-1.877,1.92h-0.555
		c-1.452,0-1.878-0.469-1.878-1.92V1.877C76.699,0.469,77.125,0,78.577,0h0.555c1.451,0,1.877,0.469,1.877,1.877v9.388
		c0.384-2.176,2.604-4.31,5.591-4.31c3.755,0,6.486,2.603,6.486,7.681V27.866z"/>
</g>
<circle fill="#53B0F0" cx="71.002" cy="18.064" r="2.176"/>
</svg>
